<svg width="996" height="235" viewBox="0 0 996 235" fill="none" xmlns="http://www.w3.org/2000/svg">
<path d="M100.401 0.198174C116.399 0.375217 132.397 0.36396 148.394 0.165161L148.373 214.934C137.446 216.824 123.992 217.299 112.159 219.186C111.764 197.246 112.172 174.836 112.204 152.845C112.235 131.857 111.884 110.33 112.52 89.4054C110.667 97.2291 108.976 105.321 107.23 113.19L82.128 222.381C76.1835 222.904 71.7157 223.299 65.8155 224.421C63.7245 211.991 60.0248 197.119 57.2153 184.676C50.1218 154.618 43.275 124.502 36.6758 94.3311C36.087 107.196 36.3607 122.71 36.3352 135.669L36.5603 228.595C25.9973 229.748 10.2263 232.166 0 234.501C1.2555 157.722 0.134256 77.6523 0.020256 0.664039C12.1568 0.211679 26.2103 0.498238 38.49 0.46523C41.601 0.376708 45.114 0.497503 48.2565 0.541764L65.6047 76.8436C68.3002 88.7926 72.6382 106.47 74.1945 118.148C76.7392 102.39 80.949 85.1046 84.4823 69.4873L100.401 0.198174Z" fill="#E50914"/>
<path d="M393.719 0.125407C409.228 0.196675 424.739 0.181684 440.248 0.0819092C441.118 66.6157 440.181 134.979 440.33 201.697C429.322 202.119 416.33 201.852 405.183 201.867C404.379 171.239 404.941 138.313 404.914 107.512C404.869 100.66 405.076 93.4947 405.17 86.6178C399.412 109.059 393.767 131.53 388.239 154.029C384.41 169.534 380.518 186.814 376.07 201.946L357.501 202.168C355.859 192.247 351.843 178.691 349.453 168.539C343.148 141.756 335.266 114.613 329.473 87.7438C329.328 92.6425 329.286 97.6807 329.448 102.581C330.547 135.876 328.78 169.818 329.74 203.033C317.861 203.42 306.31 204.867 294.172 205.113C296.532 160.361 293.299 112.84 294.563 67.7529C295.175 45.9398 294.899 21.976 294.344 0.156177L339.162 0.144913C348.415 36.6556 358.486 74.2615 367.012 110.829L382.375 47.0314C386.112 31.8522 390.593 15.3309 393.719 0.125407Z" fill="#E50914"/>
<path d="M953.731 0.246216L995.851 0.616065C980.686 35.3645 965.701 75.2555 951.518 110.749C957.196 122.917 964.763 145.717 969.466 158.906C978.016 182.871 987.293 207.556 995.468 231.568L994.958 232.588L993.503 232.297C981.301 230.97 967.666 228.75 955.306 227.133C948.293 205.579 935.393 170.974 930.413 150.384C921.983 173.556 913.771 198.883 906.008 222.366C895.756 221.634 877.561 219.352 867.563 217.496C881.078 181.184 894.706 143.419 909.241 107.593L877.336 24.6002C875.783 20.4697 869.146 3.97237 869.003 1.08566L870.331 0.353496L910.613 0.483281C916.051 19.0173 927.706 48.609 931.696 66.2541C938.101 45.1147 946.268 21.0008 953.731 0.246216Z" fill="#E50914"/>
<path d="M177.886 0.419475C210.14 0.543255 242.395 0.498262 274.648 0.282959L274.593 39.0907L213.204 39.0869C213.397 54.3591 213.172 69.32 213.634 84.6665C227.02 83.7978 245.344 84.2757 259.102 84.2509C258.643 96.1106 258.88 110.463 259.074 122.414C243.817 122.203 228.559 122.136 213.301 122.212L213.296 166.998L213.581 173.786C233.983 173.093 254.377 172.178 274.76 171.04L274.653 206.991C265.412 208.228 250.424 208.683 240.705 209.279L175.642 213.276C174.949 166.451 175.648 117.6 175.646 70.6404L175.62 24.7502C175.616 19.5281 175.297 5.76529 175.899 1.11041L177.886 0.419475Z" fill="#E50914"/>
<path d="M466.291 0.525266C477.001 0.0338965 490.126 0.387236 501.091 0.383485L562.681 0.408233C562.688 12.5762 562.801 24.7449 563.011 36.9114C543.586 37.261 523.043 36.9189 503.521 36.9084C503.596 52.1109 503.521 67.3141 503.311 82.515C518.693 82.8504 535.231 82.497 550.696 82.4445L550.576 121.089C534.818 120.939 519.061 120.993 503.303 121.248C503.543 132.038 503.656 142.83 503.626 153.623L503.483 167.905C523.238 168.062 542.993 167.929 562.748 167.508C562.846 178.964 562.831 190.421 562.703 201.877C531.271 202.26 497.191 202.352 465.801 201.858L465.817 52.0696C465.813 45.552 465.385 4.09314 466.291 0.525266Z" fill="#E50914"/>
<path d="M588.406 0.386518L674.528 0.364014C674.198 13.0181 674.281 25.6797 674.791 38.3278L621.316 38.336L621.203 84.416C635.956 84.5586 650.708 84.5353 665.461 84.347C666.001 96.8361 665.663 110.167 665.566 122.723C656.618 122.289 646.771 122.405 637.756 122.333L621.383 122.393C620.783 147.65 621.001 176.599 621.496 201.9C609.361 202.044 597.226 202 585.091 201.768C585.248 155.132 584.603 53.7238 585.488 1.1952C585.503 0.578544 587.461 0.526052 588.406 0.386518Z" fill="#E50914"/>
<path d="M698.206 0.321968C709.388 -0.245171 724.366 0.123165 735.818 0.059399C736.816 16.0383 736.013 42.0531 736.013 58.5137L735.946 169.815L789.751 172.655C789.766 184.724 790.088 199.235 789.451 211.096C778.613 209.743 765.653 209.303 754.643 208.658C735.833 207.517 717.023 206.488 698.206 205.571L698.213 47.6518C698.206 41.1717 697.253 3.96261 698.206 0.321968Z" fill="#E50914"/>
<path d="M812.971 0.235726C825.991 0.0616836 839.348 0.204219 852.398 0.193716C851.333 71.909 852.496 145.2 852.218 217.112C839.453 214.859 825.991 213.63 813.053 211.963L812.971 0.235726Z" fill="#E50914"/>
</svg>
